<svg xmlns="http://www.w3.org/2000/svg" viewBox="0 0 500 500"><g id="freepik--Shadow--inject-31"><ellipse id="freepik--path--inject-31" cx="250" cy="416.24" rx="193.89" ry="11.32" style="fill:#f5f5f5"></ellipse></g><g id="freepik--Chairs--inject-31"><rect x="196.11" y="286.67" width="4.44" height="64.18" transform="translate(-41.41 29.85) rotate(-7.8)" style="fill:#263238"></rect><g style="opacity:0.5;isolation:isolate"><rect x="196.11" y="286.67" width="4.44" height="64.18" transform="translate(-41.41 29.85) rotate(-7.8)" style="fill:#fff"></rect></g><rect x="168.6" y="286.67" width="4.44" height="64.18" transform="translate(-41.67 26.12) rotate(-7.8)" style="fill:#263238"></rect><g style="opacity:0.6000000000000001;isolation:isolate"><rect x="168.6" y="286.67" width="4.44" height="64.18" transform="translate(-41.67 26.12) rotate(-7.8)" style="fill:#fff"></rect></g><polygon points="199.48 397.06 205.67 397.06 206.43 364.36 206.75 350.55 198.41 350.55 198.73 364.36 199.48 397.06" style="fill:#263238"></polygon><polygon points="199.48 397.06 205.67 397.06 206.43 364.36 206.75 350.55 198.41 350.55 198.73 364.36 199.48 397.06" style="fill:#fff;opacity:0.6000000000000001;isolation:isolate"></polygon><polygon points="206.75 350.55 206.43 364.74 198.73 364.74 198.41 350.55 206.75 350.55" style="opacity:0.2;isolation:isolate"></polygon><polygon points="231.07 397.06 228.38 351.52 221.13 351.52 224.9 397.06 231.07 397.06" style="fill:#263238"></polygon><polygon points="224.89 397.06 231.07 397.06 228.78 358.27 228.38 351.43 221.13 351.43 221.69 358.27 224.89 397.06" style="fill:#fff;opacity:0.7000000000000001;isolation:isolate"></polygon><polygon points="221.13 351.43 221.69 358.53 228.78 358.53 228.38 351.43 221.13 351.43" style="opacity:0.2;isolation:isolate"></polygon><polygon points="180.25 397.06 184.02 351.52 176.77 351.52 174.08 397.06 180.25 397.06" style="fill:#263238"></polygon><polygon points="180.26 397.06 183.46 358.27 184.01 351.43 176.76 351.43 176.37 358.27 174.08 397.06 180.26 397.06" style="fill:#fff;opacity:0.7000000000000001;isolation:isolate"></polygon><polygon points="184.01 351.43 183.46 358.53 176.37 358.53 176.76 351.43 184.01 351.43" style="opacity:0.2;isolation:isolate"></polygon><path d="M177.88,343.74h49.38a5,5,0,0,1,5,5v5.37a0,0,0,0,1,0,0H172.88a0,0,0,0,1,0,0v-5.37A5,5,0,0,1,177.88,343.74Z" style="fill:#263238"></path><path d="M200.07,308.21H165.52a3,3,0,0,1-3-2.66L160,285.81a2,2,0,0,1,2-2.23h34.55a3.06,3.06,0,0,1,3,2.66L202,306A2,2,0,0,1,200.07,308.21Z" style="fill:#263238"></path><path d="M200.07,308.21H165.52a3,3,0,0,1-3-2.66L160,285.81a2,2,0,0,1,2-2.23h34.55a3.06,3.06,0,0,1,3,2.66L202,306A2,2,0,0,1,200.07,308.21Z" style="fill:#fff;opacity:0.8;isolation:isolate"></path><path d="M177.88,343.74h49.38a5,5,0,0,1,5,5v5.37a0,0,0,0,1,0,0H172.88a0,0,0,0,1,0,0v-5.37A5,5,0,0,1,177.88,343.74Z" style="fill:#fff;opacity:0.2"></path><rect x="170.04" y="348.93" width="65.07" height="5.19" rx="2.01" style="fill:#263238"></rect><rect x="170.04" y="348.93" width="65.07" height="5.19" rx="2.01" style="fill:#fff;opacity:0.8;isolation:isolate"></rect><g id="freepik--group--inject-31"><path d="M225.22,309.75l-3,11.82a4.07,4.07,0,0,1-3.94,3.06H170.82l-.78-4.39h44.43a1,1,0,0,0,1-.79l2.36-9.7Z" style="fill:#263238"></path><path d="M225.22,309.75l-3,11.82a4.07,4.07,0,0,1-3.94,3.06H170.82l-.78-4.39h44.43a1,1,0,0,0,1-.79l2.36-9.7Z" style="fill:#fff;opacity:0.6000000000000001;isolation:isolate"></path><rect x="202.74" y="307.86" width="64.3" height="3.79" rx="1.43" style="fill:#263238"></rect><path d="M267.05,309.13v1.25a1.27,1.27,0,0,1-1.28,1.27H204a1.27,1.27,0,0,1-1.27-1.27v-1.25a1.27,1.27,0,0,1,1.27-1.27h61.76A1.27,1.27,0,0,1,267.05,309.13Z" style="fill:#fff;opacity:0.7000000000000001;isolation:isolate"></path><path d="M267.05,309.13v1.25a1.27,1.27,0,0,1-1.28,1.27H236a1.27,1.27,0,0,1-1.27-1.27v-1.25a1.26,1.26,0,0,1,1.27-1.27h29.81A1.27,1.27,0,0,1,267.05,309.13Z" style="fill:#fff;opacity:0.5;isolation:isolate"></path></g><path d="M191.77,300.66l-8-5.74,5.87-5.61s-.82.18-.7-.17-1-.53-1-.53l-.06-.6-6,5.55L174.08,288c-2.07.34,0,1.6,0,1.6l-1.2.7,6.93,5.12-5.88,5.47s.82.06.82.41.94.64.94.64l-.41,1,6.44-6.14L190,303s1.23-.74.88-1.43S191.77,300.66,191.77,300.66Z" style="opacity:0.30000000000000004"></path><g id="freepik--group--inject-31"><rect x="297.21" y="294.55" width="4.86" height="70.31" transform="translate(-41.96 43.7) rotate(-7.8)" style="fill:#263238"></rect><g style="opacity:0.30000000000000004;isolation:isolate"><rect x="297.21" y="294.55" width="4.86" height="70.31" transform="translate(-41.96 43.7) rotate(-7.8)" style="fill:#fff"></rect></g><rect x="267.07" y="294.55" width="4.86" height="70.31" transform="translate(-42.24 39.61) rotate(-7.8)" style="fill:#263238"></rect><g style="opacity:0.4;isolation:isolate"><rect x="267.07" y="294.55" width="4.86" height="70.31" transform="translate(-42.24 39.61) rotate(-7.8)" style="fill:#fff"></rect></g><polygon points="300.91 415.5 307.68 415.5 308.51 379.68 308.87 364.54 299.73 364.54 300.08 379.68 300.91 415.5" style="fill:#263238"></polygon><polygon points="300.91 415.5 307.68 415.5 308.51 379.68 308.87 364.54 299.73 364.54 300.08 379.68 300.91 415.5" style="fill:#fff;opacity:0.4;isolation:isolate"></polygon><polygon points="308.87 364.54 308.51 380.09 300.08 380.09 299.73 364.54 308.87 364.54" style="opacity:0.2;isolation:isolate"></polygon><polygon points="335.51 415.5 332.57 365.61 324.63 365.61 328.75 415.5 335.51 415.5" style="fill:#263238"></polygon><polygon points="328.74 415.5 335.51 415.5 333.01 373 332.57 365.51 324.63 365.51 325.24 373 328.74 415.5" style="fill:#fff;opacity:0.5;isolation:isolate"></polygon><polygon points="324.63 365.51 325.24 373.29 333.01 373.29 332.57 365.51 324.63 365.51" style="opacity:0.2;isolation:isolate"></polygon><polygon points="279.84 415.5 283.96 365.61 276.02 365.61 273.07 415.5 279.84 415.5" style="fill:#263238"></polygon><polygon points="279.85 415.5 283.35 373 283.96 365.51 276.02 365.51 275.58 373 273.08 415.5 279.85 415.5" style="fill:#fff;opacity:0.5;isolation:isolate"></polygon><polygon points="283.96 365.51 283.35 373.29 275.58 373.29 276.02 365.51 283.96 365.51" style="opacity:0.2;isolation:isolate"></polygon><path d="M276.77,357.09h55.06a5,5,0,0,1,5,5v6.36a0,0,0,0,1,0,0H271.77a0,0,0,0,1,0,0v-6.36A5,5,0,0,1,276.77,357.09Z" style="fill:#263238"></path><rect x="268.65" y="362.77" width="71.29" height="5.68" rx="2.01" style="fill:#263238"></rect><rect x="268.65" y="362.77" width="71.29" height="5.68" rx="2.01" style="fill:#fff;opacity:0.6000000000000001;isolation:isolate"></rect><path d="M301.55,318.16H263.7a3.34,3.34,0,0,1-3.31-2.92l-2.77-21.62a2.17,2.17,0,0,1,2.15-2.45h37.85a3.34,3.34,0,0,1,3.31,2.92l2.77,21.62A2.17,2.17,0,0,1,301.55,318.16Z" style="fill:#263238"></path><path d="M301.55,318.16H263.7a3.34,3.34,0,0,1-3.31-2.92l-2.77-21.62a2.17,2.17,0,0,1,2.15-2.45h37.85a3.34,3.34,0,0,1,3.31,2.92l2.77,21.62A2.17,2.17,0,0,1,301.55,318.16Z" style="fill:#fff;opacity:0.6000000000000001;isolation:isolate"></path><g id="freepik--group--inject-31"><path d="M329.11,319.84l-3.31,13a4.46,4.46,0,0,1-4.32,3.35h-52l-.85-4.81h48.68a1.15,1.15,0,0,0,1.11-.87L321,319.84Z" style="fill:#263238"></path><path d="M329.11,319.84l-3.31,13a4.46,4.46,0,0,1-4.32,3.35h-52l-.85-4.81h48.68a1.15,1.15,0,0,0,1.11-.87L321,319.84Z" style="fill:#fff;opacity:0.4;isolation:isolate"></path><rect x="304.48" y="317.77" width="70.45" height="4.15" rx="1.43" style="fill:#263238"></rect><path d="M374.93,319.16v1.37a1.39,1.39,0,0,1-1.4,1.39H305.87a1.39,1.39,0,0,1-1.39-1.39v-1.37a1.39,1.39,0,0,1,1.39-1.39h67.66A1.39,1.39,0,0,1,374.93,319.16Z" style="fill:#fff;opacity:0.6000000000000001;isolation:isolate"></path><path d="M374.93,319.16v1.37a1.39,1.39,0,0,1-1.4,1.39H340.87a1.39,1.39,0,0,1-1.39-1.39v-1.37a1.39,1.39,0,0,1,1.39-1.39h32.66A1.39,1.39,0,0,1,374.93,319.16Z" style="fill:#fff;opacity:0.30000000000000004;isolation:isolate"></path></g><path d="M273.08,296l19.38,13.86s-1.34.21-1,1-1,1.56-1,1.56l-18.77-13.88,1.3-.76S270.81,296.4,273.08,296Z" style="fill:#263238"></path><path d="M288.11,296l-15.2,14.11s.9.07.9.45,1,.71,1,.71l-.45,1.12,15.7-15s-.9.2-.77-.19-1.15-.58-1.15-.58Z" style="fill:#263238"></path></g></g><g id="freepik--character-3--inject-31"><rect x="373.42" y="289.69" width="4.86" height="70.31" transform="translate(-40.6 54) rotate(-7.8)" style="fill:#263238"></rect><rect x="343.29" y="289.69" width="4.86" height="70.31" transform="translate(-40.88 49.91) rotate(-7.8)" style="fill:#263238"></rect><g style="opacity:0.30000000000000004;isolation:isolate"><rect x="373.42" y="289.69" width="4.86" height="70.31" transform="translate(-40.6 54) rotate(-7.8)" style="fill:#fff"></rect></g><g style="opacity:0.4;isolation:isolate"><rect x="343.29" y="289.69" width="4.86" height="70.31" transform="translate(-40.88 49.91) rotate(-7.8)" style="fill:#fff"></rect></g><polygon points="377.12 410.64 383.9 410.64 384.73 374.81 385.08 359.68 375.94 359.68 376.29 374.81 377.12 410.64" style="fill:#263238"></polygon><polygon points="377.12 410.64 383.9 410.64 384.73 374.81 385.08 359.68 375.94 359.68 376.29 374.81 377.12 410.64" style="fill:#fff;opacity:0.4;isolation:isolate"></polygon><polygon points="385.08 359.68 384.73 375.23 376.29 375.23 375.94 359.68 385.08 359.68" style="opacity:0.2;isolation:isolate"></polygon><polygon points="411.73 410.64 408.78 360.75 400.84 360.75 404.96 410.64 411.73 410.64" style="fill:#263238"></polygon><polygon points="404.96 410.64 411.73 410.64 409.22 368.14 408.79 360.65 400.84 360.65 401.46 368.14 404.96 410.64" style="fill:#fff;opacity:0.5;isolation:isolate"></polygon><polygon points="400.84 360.65 401.46 368.43 409.22 368.43 408.79 360.65 400.84 360.65" style="opacity:0.2;isolation:isolate"></polygon><polygon points="356.06 410.64 360.18 360.75 352.24 360.75 349.29 410.64 356.06 410.64" style="fill:#263238"></polygon><polygon points="356.06 410.64 359.56 368.14 360.18 360.65 352.23 360.65 351.8 368.14 349.29 410.64 356.06 410.64" style="fill:#fff;opacity:0.5;isolation:isolate"></polygon><polygon points="360.18 360.65 359.56 368.43 351.8 368.43 352.23 360.65 360.18 360.65" style="opacity:0.2;isolation:isolate"></polygon><path d="M353,352.23H408a5,5,0,0,1,5,5v6.36a0,0,0,0,1,0,0H348a0,0,0,0,1,0,0v-6.36A5,5,0,0,1,353,352.23Z" style="fill:#263238"></path><rect x="344.86" y="357.91" width="71.29" height="5.68" rx="2.01" style="fill:#263238"></rect><rect x="344.86" y="357.91" width="71.29" height="5.68" rx="2.01" style="fill:#fff;opacity:0.6000000000000001;isolation:isolate"></rect><path d="M376.78,313.3H340.44a3.93,3.93,0,0,1-3.9-3.44L334,289.74a3,3,0,0,1,3-3.43h36.34a3.93,3.93,0,0,1,3.9,3.43l2.58,20.13A3,3,0,0,1,376.78,313.3Z" style="fill:#263238"></path><path d="M376.78,313.3H340.44a3.93,3.93,0,0,1-3.9-3.44L334,289.74a3,3,0,0,1,3-3.43h36.34a3.93,3.93,0,0,1,3.9,3.43l2.58,20.13A3,3,0,0,1,376.78,313.3Z" style="fill:#fff;opacity:0.6000000000000001;isolation:isolate"></path><g id="freepik--group--inject-31"><path d="M432.61,357.91c1.94,4-41.92,5.68-41.92,5.68s3-12.41,16.2-14.33S429.34,351.17,432.61,357.91Z" style="fill:#1B1919"></path><path d="M432.61,357.91c1.94,4-41.92,5.68-41.92,5.68s3-12.41,16.2-14.33S429.34,351.17,432.61,357.91Z" style="opacity:0.2;isolation:isolate"></path><path d="M418.94,405.37l-6.87-.73s5.62-40.12,2.85-44.11c-2.34-3.35-13.45-4-29.1-4.84l-9.21-.45c-20.41-1.07,22.26-21.78,22.26-21.78s23.53,6.78,30.66,16.18C436.08,358.28,418.94,405.37,418.94,405.37Z" style="fill:#ebb376"></path><path d="M418.94,405.37l-6.87-.73s5.62-40.12,2.85-44.11c-2.34-3.35-13.45-4-29.1-4.84l-9.21-.45c-20.41-1.07,22.26-21.78,22.26-21.78s23.53,6.78,30.66,16.18C436.08,358.28,418.94,405.37,418.94,405.37Z" style="opacity:0.1;isolation:isolate"></path><path d="M420.4,402l-8.75-.54a.54.54,0,0,0-.61.49h0l-.86,6.9a1.37,1.37,0,0,0,1.27,1.46c3.06.14,4.52.06,8.38.27a73.46,73.46,0,0,0,10.28.33c3.26-.32,2.86-3.54,1.45-3.69-3.34-.38-7.76-2.83-9.85-4.7A2.27,2.27,0,0,0,420.4,402Z" style="fill:#263238"></path><path d="M423.08,403.49a9.64,9.64,0,0,1-2.06-.41.15.15,0,0,1-.13-.14.2.2,0,0,1,.08-.19c.26-.16,2.56-1.52,3.5-1.09a.66.66,0,0,1,.38.54,1,1,0,0,1-.28,1A2.11,2.11,0,0,1,423.08,403.49Zm1.23-1.47c-.5-.23-1.83.34-2.78.86,1.38.36,2.41.38,2.8.05a.68.68,0,0,0,.17-.64.32.32,0,0,0-.19-.27Z" style="fill:#1B1919"></path><path d="M421.05,403.09a.09.09,0,0,1-.07,0,.17.17,0,0,1-.09-.14c0-.07,0-2.35.79-3.07a1,1,0,0,1,.79-.2.7.7,0,0,1,.63.59c.12.86-1.14,2.42-2,2.83A.12.12,0,0,1,421.05,403.09Zm1.27-3a.53.53,0,0,0-.4.14,4.09,4.09,0,0,0-.66,2.44,3.8,3.8,0,0,0,1.47-2.28c0-.11-.06-.24-.32-.28Z" style="fill:#1B1919"></path><path d="M406.29,350.41c-1.5-5.63-11.6-14.34-19.91-15.68l-12,20.56c12.6.51,16.48,4.19,16.76,5.36,1.35,5.58-2.92,44.72-2.92,44.72h7.29S410,364.3,406.29,350.41Z" style="fill:#ebb376"></path><path d="M392.44,325.6s22.11,9,32.08,17.5c8.19,6.95,8.09,14.81,8.09,14.81a19.81,19.81,0,0,0-16.45-3.65c-12.92,2.59-25.47,9.33-25.47,9.33s-5.44-6.38-22-8.19S352,337.75,360.3,324.85Z" style="fill:#1B1919"></path><path d="M403.4,289.67s11.91,13.91,14.29,15.43,10.1,3.33,10.1,3.33a11.68,11.68,0,0,1,2.72-.24c.92.12,5.1,1.24,5.1,1.24s.35.05.74,2.44,1,5-.08,5.13-8.12-1.4-8.72-2.17l-.6-.78s-10.47.21-13.16-1-17.33-13.87-17.33-13.87Z" style="fill:#ebb376"></path><path d="M403.4,289.67s11.91,13.91,14.29,15.43,10.1,3.33,10.1,3.33a11.68,11.68,0,0,1,2.72-.24c.92.12,5.1,1.24,5.1,1.24s.35.05.74,2.44,1,5-.08,5.13-8.12-1.4-8.72-2.17l-.6-.78s-10.47.21-13.16-1-17.33-13.87-17.33-13.87Z" style="opacity:0.1;isolation:isolate"></path><path d="M395.64,277.41c-4.17-1.75-8,14.81-5.52,19S401,305.62,401,305.62l10.27-9.37S402.92,280.48,395.64,277.41Z" style="fill:#1B1919"></path><path d="M411.31,296.24,401,305.62s-.63-.37-1.6-1c-.75-.48-1.69-1.11-2.71-1.84a35.35,35.35,0,0,1-4.75-4,12.21,12.21,0,0,1-1.86-2.34,4.53,4.53,0,0,1-.49-1.35c-1.32-5.61,2.2-19.3,6-17.7C402.92,280.48,411.31,296.24,411.31,296.24Z" style="fill:#fff;opacity:0.6000000000000001"></path><polygon points="410.93 294.81 399.77 306.02 402.09 307.31 412.33 296.77 410.93 294.81" style="fill:#1B1919"></polygon><path d="M399.44,304.63c-.75-.48-1.69-1.11-2.71-1.84a35.35,35.35,0,0,1-4.75-4L396.87,288A25.88,25.88,0,0,1,399.44,304.63Z" style="opacity:0.2;isolation:isolate"></path><path d="M360.3,324.85s-1.53-32.36,1.59-40,12.34-13.43,34.16-7.35c0,0,4.08,2.66,2.67,14.28s-6.11,34.74-6.11,34.74Z" style="fill:#1B1919"></path><path d="M398.72,291.74c-.59,4.89-1.77,11.83-2.93,18.22-1.11,6-2.2,11.6-2.77,14.47l-.41,2.05-32.31-1.63s-1.53-32.36,1.59-40,12.34-13.43,34.16-7.35C396.05,277.46,400.13,280.12,398.72,291.74Z" style="fill:#fff;opacity:0.6000000000000001"></path><path d="M395.79,310c-1.11,6-2.2,11.6-2.77,14.47-5.4-1.68-12.41-4.29-16-7.37-6.43-5.44-16-23.13-16-23.13s6.74-11.66,17-5.11,12.9,18.49,12.9,18.49Z" style="opacity:0.2;isolation:isolate"></path><path d="M389.61,286.4l3-4.86,4.13,4.86s-1.17-12.91-16.17-13.2a7.46,7.46,0,0,0-7.61,5.08c2.63,4.25,9.6,8.87,9.6,8.87l2.77-4.2Z" style="fill:#1B1919"></path><path d="M388.66,284.81,385.93,282s-7.26-2.91-9.74-5l0,0c1.61-1.19,2.44-3.17,2.84-5.52a30,30,0,0,0,.35-5s.66-.67,3.29-.66c5.93,0,7,1.7,7,1.7a21.78,21.78,0,0,0-1.07,3.7,8.88,8.88,0,0,0,.17,4.59,4.92,4.92,0,0,0,.81,1.49,5.53,5.53,0,0,0,1.67,1.39S393.49,281.38,388.66,284.81Z" style="fill:#ebb376"></path><path d="M388.77,275.67c-3.76,3.33-9.19,2.69-12.54,1.22,1.61-1.19,2.44-3.17,2.84-5.52a30,30,0,0,0,.35-5s.66-.67,3.29-.66c5.93,0,7,1.7,7,1.7a12.13,12.13,0,0,0-1.07,3.7A8.88,8.88,0,0,0,388.77,275.67Z" style="opacity:0.2;isolation:isolate"></path><path d="M396.32,246.15s2.47-5.24,10.24-5.53,13.05,7.79,8.5,18,0,11.58-1,14.42a4.11,4.11,0,0,1-3.63,2.88s2.76-1.3-1.38-3.53-5.73-9.55-4.85-13.57-2.59-5.63-4.92-3.87Z" style="fill:#263238"></path><path d="M375.13,247s-4.27,4.34-1.74,9.92,9.22-7,9.22-7Z" style="fill:#263238"></path><path d="M399,256.76c-1.59,8-2.06,12.74-7.16,16.26-7.68,5.33-18.38.21-19.5-8.1-1.06-7.49,1.74-19.27,11-21.33S400.61,248.79,399,256.76Z" style="fill:#ebb376"></path><path d="M381.8,254a.51.51,0,0,1-.1-.24.43.43,0,0,1,.45-.4,4.13,4.13,0,0,1,3.38,1.83.41.41,0,0,1-.15.57h0a.44.44,0,0,1-.58-.14h0a3.31,3.31,0,0,0-2.72-1.41A.43.43,0,0,1,381.8,254Z" style="fill:#263238"></path><path d="M373.15,254.07a.44.44,0,0,1-.22-.14.42.42,0,0,1,.12-.58,4.11,4.11,0,0,1,3.81-.51.42.42,0,0,1,.22.55h0a.45.45,0,0,1-.55.22h0a3.31,3.31,0,0,0-3,.47A.43.43,0,0,1,373.15,254.07Z" style="fill:#263238"></path><path d="M377.65,260.59l-2.17,1.51s.49.88,2.47,1.2Z" style="fill:#d58745"></path><path d="M377,265a25.17,25.17,0,0,1,1.25,3.36l.63-.08c2.83-.38,4-1.49,4.48-2.61a3.81,3.81,0,0,0,.23-1.74,3.51,3.51,0,0,0-.22-1c-1.38,1.1-4,1.66-5.41,1.9C377.34,264.92,377,265,377,265Z" style="fill:#263238"></path><path d="M377.93,264.82l.4,1c2.67-.37,4.5-1,5.23-1.91a3.51,3.51,0,0,0-.22-1C382,264,379.34,264.58,377.93,264.82Z" style="fill:#fff"></path><path d="M378.85,268.24c2.83-.38,4-1.49,4.48-2.61a9,9,0,0,0-3.06,1A3.43,3.43,0,0,0,378.85,268.24Z" style="fill:#de5753"></path><path d="M394.75,261s-1.51-1.72-5.26-.77a14.91,14.91,0,0,0-5.5,2.59s-8.3-3.77-11.82-2c0,0-2.19,9.53,6.71,13.71,0,0,15.48,1.16,16.87-8.92,0,0-2.07,6.95-8.81,7.38a15.91,15.91,0,0,1-2-9.42S388.18,259.23,394.75,261Z" style="fill:#1B1919"></path><path d="M394.75,261s-1.51-1.72-5.26-.77a14.91,14.91,0,0,0-5.5,2.59s-8.3-3.77-11.82-2c0,0-2.19,9.53,6.71,13.71,0,0,15.48,1.16,16.87-8.92,0,0-2.07,6.95-8.81,7.38a15.91,15.91,0,0,1-2-9.42S388.18,259.23,394.75,261Z" style="fill:#fff;opacity:0.8"></path><path d="M392.32,263.83a10.76,10.76,0,0,1-2.42-6.34s-7.67-2.7-10.26-7.3a15.4,15.4,0,0,0,5.67,7.33s-10.88-3.31-10.93-9.54,8.28-8.26,17.51-5.9,11.31,10.31,9.94,15.86c0,0,.42,11.1-7.22,12.56C394.61,270.5,396,264.92,392.32,263.83Z" style="fill:#263238"></path><path d="M391.68,261.45s2.08-4.46,4.37-3,1.6,9-1.87,8.91S390,263.83,391.68,261.45Z" style="fill:#ebb376"></path><path d="M380.84,259.27c0,.82.48,1.49,1,1.48s1-.7,1-1.53-.48-1.49-1-1.48S380.82,258.44,380.84,259.27Z" style="fill:#263238"></path><path d="M382,257.78l-1.82-.67S381.15,258.61,382,257.78Z" style="fill:#263238"></path><path d="M374,258.59c0,.83.48,1.49,1,1.48s1-.69,1-1.52-.48-1.49-1-1.48S374,257.76,374,258.59Z" style="fill:#263238"></path><path d="M375.22,257.11l-1.81-.67S374.34,257.94,375.22,257.11Z" style="fill:#263238"></path><path d="M392.94,252.2s-2.67,25.79-4.67,28.05S372,280,367.89,278.2L371,248.25A140.81,140.81,0,0,1,392.94,252.2Z" style="fill:#1B1919;opacity:0.2"></path><path d="M392.94,252.2s-2.67,25.79-4.67,28.05S372,280,367.89,278.2L368,277c5.4,1.69,16.91,3.44,18.69,1.43s3.95-21.44,4.53-26.73Z" style="opacity:0.2"></path><path d="M402.75,254.32s-15.53-5.82-31.74-6.44l-.35,2.73a124.07,124.07,0,0,1,32,6.8Z" style="fill:#1B1919"></path><line x1="411.85" y1="296.87" x2="417.99" y2="312.77" style="fill:none;stroke:#263238;stroke-miterlimit:10;stroke-width:2px"></line><path d="M379.32,294.82s8.53,8.81,10.29,10,18.61,4,18.61,4,5.78-1.48,7.8-1.71,5.33,6.37,5.33,6.37-8.65,2-11.39.81c0,0-17.84.11-21.76-1s-14.15-8.12-14.15-8.12Z" style="fill:#ebb376"></path><path d="M364.62,281.89c6.68-6.16,20.23,16.81,20.23,16.81l-8.2,10.1S350.16,295.24,364.62,281.89Z" style="fill:#1B1919"></path><path d="M364.62,281.89c6.68-6.16,20.23,16.81,20.23,16.81l-8.2,10.1S350.16,295.24,364.62,281.89Z" style="fill:#fff;opacity:0.6000000000000001"></path><polygon points="374.94 309.26 384.85 297.2 386.69 299.88 378.11 311.26 374.94 309.26" style="fill:#1B1919"></polygon><path d="M405.32,315l-3.31,13a4.45,4.45,0,0,1-4.31,3.35h-52l-.86-4.81h48.68a1.14,1.14,0,0,0,1.11-.87L397.23,315Z" style="fill:#263238"></path><path d="M405.32,315l-3.31,13a4.45,4.45,0,0,1-4.31,3.35h-52l-.86-4.81h48.68a1.14,1.14,0,0,0,1.11-.87L397.23,315Z" style="fill:#fff;opacity:0.4;isolation:isolate"></path><rect x="380.69" y="312.91" width="70.45" height="4.15" rx="1.43" style="fill:#263238"></rect><path d="M451.15,314.3v1.37a1.4,1.4,0,0,1-1.4,1.39H382.08a1.39,1.39,0,0,1-1.39-1.39V314.3a1.39,1.39,0,0,1,1.39-1.39h67.67A1.4,1.4,0,0,1,451.15,314.3Z" style="fill:#fff;opacity:0.6000000000000001;isolation:isolate"></path><path d="M451.15,314.3v1.37a1.4,1.4,0,0,1-1.4,1.39H417.08a1.39,1.39,0,0,1-1.39-1.39V314.3a1.39,1.39,0,0,1,1.39-1.39h32.67A1.4,1.4,0,0,1,451.15,314.3Z" style="fill:#fff;opacity:0.30000000000000004;isolation:isolate"></path><path d="M396.09,402l-8.75-.54a.55.55,0,0,0-.61.49h0l-.86,6.9a1.38,1.38,0,0,0,1.28,1.46c3.05.14,4.52.06,8.37.27a73.51,73.51,0,0,0,10.28.33c3.27-.32,2.87-3.54,1.46-3.69-3.34-.38-7.76-2.83-9.85-4.7A2.27,2.27,0,0,0,396.09,402Z" style="fill:#263238"></path><path d="M398.78,403.49a9.61,9.61,0,0,1-2.07-.41.16.16,0,0,1-.13-.14.26.26,0,0,1,.08-.19c.26-.16,2.57-1.52,3.5-1.09a.67.67,0,0,1,.39.54,1,1,0,0,1-.29,1A2.08,2.08,0,0,1,398.78,403.49ZM400,402c-.5-.23-1.84.34-2.78.86,1.38.36,2.4.38,2.8.05a.71.71,0,0,0,.17-.64A.36.36,0,0,0,400,402Z" style="fill:#1B1919"></path><path d="M396.75,403.09a.11.11,0,0,1-.08,0,.19.19,0,0,1-.09-.14c0-.07,0-2.35.8-3.07a1,1,0,0,1,.79-.2.68.68,0,0,1,.62.59c.13.86-1.14,2.42-1.94,2.83A.12.12,0,0,1,396.75,403.09Zm1.27-3a.52.52,0,0,0-.4.14,4,4,0,0,0-.66,2.44,3.85,3.85,0,0,0,1.47-2.28c0-.11-.07-.24-.33-.28Z" style="fill:#1B1919"></path></g></g><g id="freepik--character-1--inject-31"><rect x="94.87" y="290.56" width="4.44" height="64.18" transform="matrix(0.99, -0.14, 0.14, 0.99, -42.88, 16.16)" style="fill:#263238"></rect><rect x="67.36" y="290.56" width="4.44" height="64.18" transform="translate(-43.13 12.42) rotate(-7.8)" style="fill:#263238"></rect><g style="opacity:0.30000000000000004;isolation:isolate"><rect x="94.87" y="290.56" width="4.44" height="64.18" transform="matrix(0.99, -0.14, 0.14, 0.99, -42.88, 16.16)" style="fill:#fff"></rect></g><g style="opacity:0.6000000000000001;isolation:isolate"><rect x="67.36" y="290.56" width="4.44" height="64.18" transform="translate(-43.13 12.42) rotate(-7.8)" style="fill:#fff"></rect></g><polygon points="98.25 400.95 104.43 400.95 105.19 368.25 105.51 354.44 97.17 354.44 97.49 368.25 98.25 400.95" style="fill:#263238"></polygon><polygon points="98.25 400.95 104.43 400.95 105.19 368.25 105.51 354.44 97.17 354.44 97.49 368.25 98.25 400.95" style="fill:#fff;opacity:0.6000000000000001;isolation:isolate"></polygon><polygon points="105.51 354.44 105.19 368.63 97.49 368.63 97.17 354.44 105.51 354.44" style="opacity:0.2;isolation:isolate"></polygon><polygon points="129.84 400.95 127.15 355.41 119.9 355.41 123.66 400.95 129.84 400.95" style="fill:#263238"></polygon><polygon points="123.66 400.95 129.83 400.95 127.55 362.15 127.15 355.32 119.9 355.32 120.46 362.15 123.66 400.95" style="fill:#fff;opacity:0.7000000000000001;isolation:isolate"></polygon><polygon points="119.9 355.32 120.46 362.42 127.55 362.42 127.15 355.32 119.9 355.32" style="opacity:0.2;isolation:isolate"></polygon><polygon points="79.02 400.95 82.78 355.41 75.53 355.41 72.84 400.95 79.02 400.95" style="fill:#263238"></polygon><polygon points="79.02 400.95 82.22 362.15 82.78 355.32 75.53 355.32 75.13 362.15 72.85 400.95 79.02 400.95" style="fill:#fff;opacity:0.7000000000000001;isolation:isolate"></polygon><polygon points="82.78 355.32 82.22 362.42 75.13 362.42 75.53 355.32 82.78 355.32" style="opacity:0.2;isolation:isolate"></polygon><path d="M76.65,347.63H126a5,5,0,0,1,5,5V358a0,0,0,0,1,0,0H71.65a0,0,0,0,1,0,0v-5.37A5,5,0,0,1,76.65,347.63Z" style="fill:#263238"></path><path d="M98.14,312.1H65.34a4.24,4.24,0,0,1-4.21-3.7l-2.31-18a2.59,2.59,0,0,1,2.58-2.92H94.2a4.23,4.23,0,0,1,4.2,3.7l2.31,18A2.59,2.59,0,0,1,98.14,312.1Z" style="fill:#263238"></path><path d="M98.14,312.1H65.34a4.24,4.24,0,0,1-4.21-3.7l-2.31-18a2.59,2.59,0,0,1,2.58-2.92H94.2a4.23,4.23,0,0,1,4.2,3.7l2.31,18A2.59,2.59,0,0,1,98.14,312.1Z" style="fill:#fff;opacity:0.8;isolation:isolate"></path><path d="M76.65,347.63H126a5,5,0,0,1,5,5V358a0,0,0,0,1,0,0H71.65a0,0,0,0,1,0,0v-5.37A5,5,0,0,1,76.65,347.63Z" style="fill:#fff;opacity:0.2"></path><rect x="68.8" y="352.82" width="65.07" height="5.19" rx="2.01" style="fill:#263238"></rect><rect x="68.8" y="352.82" width="65.07" height="5.19" rx="2.01" style="fill:#fff;opacity:0.8;isolation:isolate"></rect><g id="freepik--group--inject-31"><polygon points="139.99 384.83 139.05 390.71 138.19 396.14 130.32 396.14 131.01 389.19 131.65 382.54 139.99 384.83" style="fill:#ebb376"></polygon><path d="M137.75,393.06l-8-.5a.51.51,0,0,0-.56.45h0l-.78,6.3a1.26,1.26,0,0,0,1.16,1.33c2.79.13,4.13.05,7.65.24a65.58,65.58,0,0,0,9.38.3c3-.29,2.61-3.22,1.33-3.36a19.69,19.69,0,0,1-9-4.29A1.94,1.94,0,0,0,137.75,393.06Z" style="fill:#263238"></path><path d="M140.19,394.43a9.36,9.36,0,0,1-1.88-.38.16.16,0,0,1-.12-.13.21.21,0,0,1,.08-.17c.23-.14,2.34-1.39,3.19-1a.6.6,0,0,1,.35.5.87.87,0,0,1-.26.91A2,2,0,0,1,140.19,394.43Zm1.13-1.35c-.46-.21-1.68.31-2.53.79,1.25.33,2.19.35,2.55,0a.59.59,0,0,0,.15-.58.3.3,0,0,0-.17-.25Z" style="fill:#1B1919"></path><path d="M138.35,394.06h-.07a.2.2,0,0,1-.09-.13c0-.07,0-2.15.73-2.8a.88.88,0,0,1,.72-.18.63.63,0,0,1,.57.54c.11.78-1,2.2-1.77,2.58A.13.13,0,0,1,138.35,394.06Zm1.15-2.77a.45.45,0,0,0-.36.13c-.46.38-.58,1.55-.61,2.22a3.49,3.49,0,0,0,1.35-2.08c0-.1-.06-.22-.3-.26Z" style="fill:#1B1919"></path><polygon points="139.99 384.83 139.05 390.71 131.01 389.19 131.65 382.54 139.99 384.83" style="opacity:0.2;isolation:isolate"></polygon><path d="M141.08,389.16l-.28.77-12.26-3s6.74-28.12,4.21-31.75c-2.14-3.07-12.28-3.7-26.57-4.42l-8.4-.42c-18.63-1,20.32-19.88,20.32-19.88s24.94,1.05,31.45,9.63C155.53,348,143.12,383.47,141.08,389.16Z" style="fill:#1B1919"></path><path d="M137.06,386.34l4,2.82-.28.77-12.26-3s6.74-28.12,4.21-31.75c-2.14-3.07-12.28-3.7-26.57-4.42l-1.67-4.9,10.66-12.41s22.86,2.75,27.42,11.88S137.06,386.34,137.06,386.34Z" style="opacity:0.2;isolation:isolate"></path><path d="M124.37,288.57s11.4,13.3,13.67,14.75,9.66,3.19,9.66,3.19a11.42,11.42,0,0,1,2.6-.23c.88.12,4.88,1.19,4.88,1.19s.33,0,.71,2.33.94,4.82-.08,4.91-7.76-1.34-8.34-2.08l-.57-.75s-10,.2-12.59-1-16.57-13.27-16.57-13.27Z" style="fill:#ebb376"></path><path d="M124.37,288.57s11.4,13.3,13.67,14.75,9.66,3.19,9.66,3.19a11.42,11.42,0,0,1,2.6-.23c.88.12,4.88,1.19,4.88,1.19s.33,0,.71,2.33.94,4.82-.08,4.91-7.76-1.34-8.34-2.08l-.57-.75s-10,.2-12.59-1-16.57-13.27-16.57-13.27Z" style="opacity:0.1;isolation:isolate"></path><path d="M117,276.85c-4-1.68-7.63,14.15-5.27,18.21s10.44,8.76,10.44,8.76l9.82-9S123.92,279.78,117,276.85Z" style="fill:#1B1919"></path><path d="M131.94,294.86l-9.83,9s-1.88-1.09-4.11-2.7-5.11-4-6.32-6.06a3.9,3.9,0,0,1-.47-1.29c-1.26-5.36,2.1-18.45,5.74-16.92C123.92,279.78,131.94,294.86,131.94,294.86Z" style="fill:#fff;opacity:0.6000000000000001"></path><polygon points="131.58 293.49 120.9 304.21 123.12 305.44 132.91 295.36 131.58 293.49" style="fill:#1B1919"></polygon><path d="M118,301.12c-2.36-1.7-5.11-4-6.32-6.06a3.9,3.9,0,0,1-.47-1.29l5-11.08S121.35,291.51,118,301.12Z" style="opacity:0.2;isolation:isolate"></path><path d="M79.66,327.09s-8.25,23.34,15.14,23.34,25.28-9.12,23.3-19.86Z" style="fill:#1B1919"></path><polygon points="117.81 384.83 116.87 390.71 116.01 396.14 108.14 396.14 108.82 389.19 109.47 382.54 117.81 384.83" style="fill:#ebb376"></polygon><path d="M115.56,393.06l-8-.5a.51.51,0,0,0-.56.45h0l-.78,6.3a1.25,1.25,0,0,0,1.16,1.33c2.79.13,4.13.05,7.64.24a65.78,65.78,0,0,0,9.39.3c3-.29,2.61-3.22,1.32-3.36a19.7,19.7,0,0,1-9-4.29A2,2,0,0,0,115.56,393.06Z" style="fill:#263238"></path><path d="M118,394.43a9.22,9.22,0,0,1-1.88-.38.15.15,0,0,1-.12-.13.18.18,0,0,1,.07-.17c.24-.14,2.34-1.39,3.2-1a.62.62,0,0,1,.35.5.87.87,0,0,1-.26.91A2,2,0,0,1,118,394.43Zm1.13-1.35c-.46-.21-1.68.31-2.54.79,1.26.33,2.2.35,2.55,0a.62.62,0,0,0,.16-.58.32.32,0,0,0-.17-.25Z" style="fill:#1B1919"></path><path d="M116.16,394.06h-.07a.22.22,0,0,1-.08-.13c0-.07,0-2.15.72-2.8a.91.91,0,0,1,.73-.18.64.64,0,0,1,.57.54c.11.78-1,2.2-1.78,2.58A.14.14,0,0,1,116.16,394.06Zm1.16-2.77a.46.46,0,0,0-.37.13,3.67,3.67,0,0,0-.6,2.22,3.49,3.49,0,0,0,1.35-2.08c0-.1-.07-.22-.3-.26Z" style="fill:#1B1919"></path><polygon points="117.81 384.83 116.87 390.71 108.82 389.19 109.47 382.54 117.81 384.83" style="opacity:0.2;isolation:isolate"></polygon><path d="M127.36,340.13c-3.64-4.81-13.07-7.25-20.66-8.47l-11,18.77c11.5.47,15,3.82,15.29,4.89,1.24,5.1-4.66,31.65-4.66,31.65l12.26,3S133.87,348.72,127.36,340.13Z" style="fill:#1B1919"></path><path d="M77.41,331.66s4.28-40.39,7.26-47.74,11.81-12.84,32.67-7c0,0,3.91,2.54,2.56,13.65s-1.8,39.95-1.8,39.95Z" style="fill:#1B1919"></path><path d="M119.9,290.55c-.49,4-.86,10.39-1.13,16.86-.13,2.83-.23,5.68-.31,8.35-.25,8.13-.36,14.74-.36,14.74l-40.69,1.17s4.27-40.4,7.26-47.75,11.81-12.84,32.67-7C117.34,276.9,121.25,279.44,119.9,290.55Z" style="fill:#fff;opacity:0.6000000000000001"></path><path d="M111.19,285.44l2.86-4.65,4,4.65s-1.12-12.34-15.47-12.62a7.14,7.14,0,0,0-7.28,4.86c2.52,4.06,9.19,8.48,9.19,8.48l2.65-4Z" style="fill:#1B1919"></path><line x1="132.46" y1="295.45" x2="138.33" y2="310.67" style="fill:none;stroke:#263238;stroke-miterlimit:10;stroke-width:2px"></line><path d="M118.77,307.41c-.13,2.83-.23,5.68-.31,8.35-4.38.55-12.51,1.3-16.68.12-7.46-2.11-18.86-16.09-16.58-26.22S92.74,281,92.74,281s13.9,11.6,20.1,23.46Z" style="opacity:0.2;isolation:isolate"></path><path d="M101.34,293.5s8.17,8.42,9.85,9.56S129,306.87,129,306.87s5.53-1.42,7.46-1.64,5.1,6.09,5.1,6.09-8.27,1.91-10.89.78c0,0-17.06.1-20.81-1s-13.53-7.76-13.53-7.76Z" style="fill:#ebb376"></path><path d="M87.29,281.13c6.38-5.89,19.34,16.07,19.34,16.07l-7.84,9.67S73.45,293.9,87.29,281.13Z" style="fill:#1B1919"></path><path d="M87.29,281.13c6.38-5.89,19.34,16.07,19.34,16.07l-7.84,9.67S73.45,293.9,87.29,281.13Z" style="fill:#fff;opacity:0.6000000000000001"></path><polygon points="97.15 307.3 106.63 295.77 108.4 298.33 100.19 309.21 97.15 307.3" style="fill:#1B1919"></polygon><path d="M124,313.64l-3,11.82a4.07,4.07,0,0,1-3.94,3.06H69.58l-.78-4.39h44.44a1,1,0,0,0,1-.79l2.35-9.7Z" style="fill:#263238"></path><path d="M124,313.64l-3,11.82a4.07,4.07,0,0,1-3.94,3.06H69.58l-.78-4.39h44.44a1,1,0,0,0,1-.79l2.35-9.7Z" style="fill:#fff;opacity:0.6000000000000001;isolation:isolate"></path><rect x="101.51" y="311.75" width="64.3" height="3.79" rx="1.43" style="fill:#263238"></rect><path d="M165.81,313v1.26a1.27,1.27,0,0,1-1.28,1.26H102.78a1.26,1.26,0,0,1-1.27-1.26V313a1.26,1.26,0,0,1,1.27-1.26h61.75A1.27,1.27,0,0,1,165.81,313Z" style="fill:#fff;opacity:0.7000000000000001;isolation:isolate"></path><path d="M165.81,313v1.26a1.27,1.27,0,0,1-1.28,1.26H134.72a1.26,1.26,0,0,1-1.27-1.26V313a1.26,1.26,0,0,1,1.27-1.26h29.81A1.27,1.27,0,0,1,165.81,313Z" style="fill:#fff;opacity:0.5;isolation:isolate"></path><path d="M119.14,273.64A8.34,8.34,0,0,0,112,279a4.68,4.68,0,0,0-.18.51l-1.55,4.09-3.6-3.74a13.08,13.08,0,0,1-6.29-5.21,19.21,19.21,0,0,0,4.72-3.48,19.41,19.41,0,0,0,3.34-4.28S125.13,273,119.14,273.64Z" style="fill:#ebb376"></path><path d="M119.14,273.64A8.34,8.34,0,0,0,112,279a11.79,11.79,0,0,1-6.9-7.83,19.41,19.41,0,0,0,3.34-4.28S125.13,273,119.14,273.64Z" style="opacity:0.2;isolation:isolate"></path><path d="M127.3,251.89s3.51,4.64.43,9.62-7.88-7.81-7.88-7.81Z" style="fill:#263238"></path><path d="M103.45,258.18c.52,7.77.39,12.33,4.79,16.3,6.63,6,17.4,2.46,19.5-5.29,1.91-7,.7-18.49-7.84-21.58S102.92,250.43,103.45,258.18Z" style="fill:#ebb376"></path><path d="M119.23,262.7c-.06.68.27,1.27.72,1.3s.85-.5.9-1.18-.27-1.27-.72-1.3S119.28,262,119.23,262.7Z" style="fill:#263238"></path><path d="M125,262.7c0,.68.27,1.27.72,1.3s.85-.5.9-1.18-.27-1.27-.72-1.3S125.07,262,125,262.7Z" style="fill:#263238"></path><path d="M120.12,257.64a.5.5,0,0,0,.13-.22.43.43,0,0,0-.37-.44,4,4,0,0,0-3.44,1.33.41.41,0,0,0,.07.56h0a.42.42,0,0,0,.57-.07h0a3.16,3.16,0,0,1,2.75-1A.46.46,0,0,0,120.12,257.64Z" style="fill:#263238"></path><path d="M128.31,258.81a.45.45,0,0,0,.23-.11.42.42,0,0,0,0-.57,4,4,0,0,0-3.55-.95.39.39,0,0,0-.28.49h0a.42.42,0,0,0,.5.28h0a3.17,3.17,0,0,1,2.81.82A.42.42,0,0,0,128.31,258.81Z" style="fill:#263238"></path><path d="M123.25,264.44l1.87,1.69s-.57.77-2.49.84Z" style="fill:#d58745"></path><path d="M123.36,268.67a22.64,22.64,0,0,0-1.6,3l-.59-.16c-2.64-.71-3.63-1.91-3.93-3a3.48,3.48,0,0,1,0-1.67,3.23,3.23,0,0,1,.32-.9c1.18,1.22,3.59,2.07,4.9,2.47C123,268.58,123.36,268.67,123.36,268.67Z" style="fill:#263238"></path><path d="M122.46,268.41l-.5.88c-2.48-.67-4.15-1.48-4.72-2.45a3.23,3.23,0,0,1,.32-.9C118.74,267.16,121.15,268,122.46,268.41Z" style="fill:#fff"></path><path d="M121.17,271.54c-2.64-.71-3.63-1.91-3.93-3a9,9,0,0,1,2.78,1.37A3.33,3.33,0,0,1,121.17,271.54Z" style="fill:#de5753"></path><path d="M103.17,252.73a5.51,5.51,0,0,1,4.14-7c5.77-1.64,17.12.41,20.75-1.61,0,0,1.75,4.61.94,7l2.1-1.07s-2.85,4.82-7.74,4.35-9.12-2.9-10.16,3.58-5,7.19-5,7.19l-2.74,5.73a11.49,11.49,0,0,1-5.25-9.83C100.1,254,103.17,252.73,103.17,252.73Z" style="fill:#263238"></path><path d="M107,262.76s1.65-1.45,5.09-.09A14.33,14.33,0,0,1,117,265.8s8.34-2.56,11.47-.47c0,0,.9,9.31-8,12.17,0,0-14.83-.79-14.91-10.53,0,0,1.12,6.85,7.46,8.08a15.23,15.23,0,0,0,3-8.69S113.43,261.86,107,262.76Z" style="fill:#1B1919"></path><path d="M107,262.76s1.65-1.45,5.09-.09A14.33,14.33,0,0,1,117,265.8s8.34-2.56,11.47-.47c0,0,.9,9.31-8,12.17,0,0-14.83-.79-14.91-10.53,0,0,1.12,6.85,7.46,8.08a15.23,15.23,0,0,0,3-8.69S113.43,261.86,107,262.76Z" style="fill:#fff;opacity:0.8"></path><path d="M109.83,263.53s-1.42-4.49-3.78-3.35-2.62,8.36.68,8.68S111.1,266,109.83,263.53Z" style="fill:#ebb376"></path><path d="M109.78,254.6s-.65,24.79,1,27.18,15.48,1.78,19.58.56l.76-28.79A134.36,134.36,0,0,0,109.78,254.6Z" style="fill:#1B1919;opacity:0.2"></path><path d="M130.38,280.76l0,1.58c-4.1,1.22-18,1.83-19.58-.56s-1-27.18-1-27.18a121.36,121.36,0,0,1,15.09-1.09,114.21,114.21,0,0,0-13.93,1s-.61,23.44.93,25.7S126.51,281.92,130.38,280.76Z" style="opacity:0.2"></path><path d="M100.21,255.4s15.45-3.6,30.89-2.2v2.63a118.78,118.78,0,0,0-31.18,2.52Z" style="fill:#1B1919"></path></g></g><g id="freepik--character-2--inject-31"><rect x="190.99" y="299.41" width="4.86" height="70.31" transform="translate(-43.6 29.34) rotate(-7.8)" style="fill:#263238"></rect><rect x="160.85" y="299.41" width="4.86" height="70.31" transform="translate(-43.88 25.25) rotate(-7.8)" style="fill:#263238"></rect><g style="opacity:0.30000000000000004;isolation:isolate"><rect x="190.99" y="299.41" width="4.86" height="70.31" transform="translate(-43.6 29.34) rotate(-7.8)" style="fill:#fff"></rect></g><g style="opacity:0.4;isolation:isolate"><rect x="160.85" y="299.41" width="4.86" height="70.31" transform="translate(-43.88 25.25) rotate(-7.8)" style="fill:#fff"></rect></g><polygon points="194.69 420.36 201.47 420.36 202.3 384.54 202.65 369.4 193.51 369.4 193.86 384.54 194.69 420.36" style="fill:#263238"></polygon><polygon points="194.69 420.36 201.47 420.36 202.3 384.54 202.65 369.4 193.51 369.4 193.86 384.54 194.69 420.36" style="fill:#fff;opacity:0.4;isolation:isolate"></polygon><polygon points="202.65 369.4 202.3 384.95 193.86 384.95 193.51 369.4 202.65 369.4" style="opacity:0.2;isolation:isolate"></polygon><polygon points="229.3 420.36 226.35 370.47 218.41 370.47 222.53 420.36 229.3 420.36" style="fill:#263238"></polygon><polygon points="222.53 420.36 229.29 420.36 226.79 377.86 226.35 370.37 218.41 370.37 219.03 377.86 222.53 420.36" style="fill:#fff;opacity:0.5;isolation:isolate"></polygon><polygon points="218.41 370.37 219.02 378.15 226.79 378.15 226.35 370.37 218.41 370.37" style="opacity:0.2;isolation:isolate"></polygon><polygon points="173.62 420.36 177.75 370.47 169.81 370.47 166.86 420.36 173.62 420.36" style="fill:#263238"></polygon><polygon points="173.63 420.36 177.13 377.86 177.74 370.37 169.8 370.37 169.36 377.86 166.86 420.36 173.63 420.36" style="fill:#fff;opacity:0.5;isolation:isolate"></polygon><polygon points="177.74 370.37 177.13 378.15 169.36 378.15 169.8 370.37 177.74 370.37" style="opacity:0.2;isolation:isolate"></polygon><path d="M170.55,361.95h55.06a5,5,0,0,1,5,5v6.36a0,0,0,0,1,0,0H165.55a0,0,0,0,1,0,0v-6.36A5,5,0,0,1,170.55,361.95Z" style="fill:#263238"></path><rect x="162.43" y="367.63" width="71.29" height="5.68" rx="2.01" style="fill:#263238"></rect><rect x="162.43" y="367.63" width="71.29" height="5.68" rx="2.01" style="fill:#fff;opacity:0.6000000000000001;isolation:isolate"></rect><path d="M194.57,323H158.63A4.65,4.65,0,0,1,154,319l-2.52-19.72a2.84,2.84,0,0,1,2.82-3.21h35.93a4.65,4.65,0,0,1,4.61,4.06l2.53,19.72A2.85,2.85,0,0,1,194.57,323Z" style="fill:#263238"></path><path d="M194.57,323H158.63A4.65,4.65,0,0,1,154,319l-2.52-19.72a2.84,2.84,0,0,1,2.82-3.21h35.93a4.65,4.65,0,0,1,4.61,4.06l2.53,19.72A2.85,2.85,0,0,1,194.57,323Z" style="fill:#fff;opacity:0.6000000000000001;isolation:isolate"></path><g id="freepik--group--inject-31"><path d="M219.92,277.86s10.8-4.64,11.34-6S236.07,248,236.07,248a8.78,8.78,0,0,1-1.24-4.82c.17-2.62,0-7.25,1.24-8.14s8.38,2.85,9,4.45-1.34,8.77-2.41,9.28c0,0-1.14,26-2.88,27.86s-14.16,11.67-14.16,11.67Z" style="fill:#b97964"></path><path d="M219.92,277.86s10.8-4.64,11.34-6S236.07,248,236.07,248a8.78,8.78,0,0,1-1.24-4.82c.17-2.62,0-7.25,1.24-8.14s8.38,2.85,9,4.45-1.34,8.77-2.41,9.28c0,0-1.14,26-2.88,27.86s-14.16,11.67-14.16,11.67Z" style="opacity:0.1;isolation:isolate"></path><path d="M202.61,284.17c-3,3.66,12.49,12.43,17.48,11.22s12.46-8.24,12.46-8.24L226.2,274S207.86,277.77,202.61,284.17Z" style="fill:#1B1919"></path><path d="M226.19,274l6.36,13.11s-1.74,1.64-4.12,3.48-5.76,4.13-8.33,4.76a4.51,4.51,0,0,1-1.5.09c-6-.35-18.73-8-16-11.3C207.86,277.77,226.19,274,226.19,274Z" style="fill:#fff;opacity:0.6000000000000001"></path><polygon points="224.64 273.99 232.58 288.55 234.56 286.6 227.03 273.17 224.64 273.99" style="fill:#1B1919"></polygon><path d="M228.43,290.63c-2.52,1.95-5.76,4.13-8.33,4.76a4.51,4.51,0,0,1-1.5.09l-10.08-8.75S219.38,284.12,228.43,290.63Z" style="opacity:0.2;isolation:isolate"></path><polygon points="240.43 402.7 239.4 409.14 238.45 415.09 229.83 415.09 230.58 407.48 231.29 400.19 240.43 402.7" style="fill:#b97964"></polygon><path d="M238,411.71l-8.75-.54a.56.56,0,0,0-.61.49h0l-.86,6.9A1.38,1.38,0,0,0,229,420c3.06.14,4.52.06,8.37.27a73.66,73.66,0,0,0,10.29.33c3.26-.32,2.86-3.53,1.45-3.69-3.34-.38-7.76-2.83-9.85-4.69A2.22,2.22,0,0,0,238,411.71Z" style="fill:#263238"></path><path d="M240.65,413.21a9.73,9.73,0,0,1-2.07-.41.16.16,0,0,1-.13-.14.25.25,0,0,1,.09-.19c.26-.15,2.56-1.52,3.49-1.09a.69.69,0,0,1,.39.54,1,1,0,0,1-.29,1A2,2,0,0,1,240.65,413.21Zm1.23-1.47c-.5-.23-1.84.34-2.78.86,1.38.36,2.41.38,2.8,0a.68.68,0,0,0,.17-.64.34.34,0,0,0-.19-.27Z" style="fill:#1B1919"></path><path d="M238.62,412.81h-.07a.22.22,0,0,1-.1-.15c0-.07,0-2.35.8-3.07a1,1,0,0,1,.79-.2.7.7,0,0,1,.63.59c.12.86-1.14,2.42-1.95,2.83A.12.12,0,0,1,238.62,412.81Zm1.27-3a.54.54,0,0,0-.4.15,4,4,0,0,0-.66,2.43,3.85,3.85,0,0,0,1.47-2.28c0-.11-.07-.24-.32-.28Z" style="fill:#1B1919"></path><polygon points="240.43 402.7 239.4 409.14 230.58 407.48 231.29 400.19 240.43 402.7" style="opacity:0.2;isolation:isolate"></polygon><path d="M241.62,407.44l-.31.85-13.43-3.24s7.38-30.81,4.61-34.79c-2.34-3.36-13.45-4.06-29.11-4.85l-9.2-.45c-20.41-1.07,22.26-21.78,22.26-21.78s27.33,1.15,34.45,10.55C257.45,362.37,243.86,401.21,241.62,407.44Z" style="fill:#1B1919"></path><path d="M237.22,404.36l4.4,3.08-.31.85-13.43-3.24s7.38-30.81,4.61-34.79c-2.34-3.36-13.45-4.06-29.11-4.85l-1.83-5.36,11.68-13.6s25.05,3,30,13S237.22,404.36,237.22,404.36Z" style="opacity:0.2;isolation:isolate"></path><path d="M174.33,339.44s-9,25.58,16.59,25.58,27.69-10,25.52-21.77Z" style="fill:#1B1919"></path><polygon points="216.12 402.7 215.09 409.14 214.15 415.09 205.53 415.09 206.28 407.48 206.99 400.19 216.12 402.7" style="fill:#b97964"></polygon><path d="M213.66,411.71l-8.75-.54a.55.55,0,0,0-.61.49h0l-.86,6.9a1.37,1.37,0,0,0,1.28,1.46c3.05.14,4.52.06,8.37.27a73.46,73.46,0,0,0,10.28.33c3.26-.32,2.86-3.53,1.46-3.69-3.34-.38-7.77-2.83-9.86-4.69A2.19,2.19,0,0,0,213.66,411.71Z" style="fill:#263238"></path><path d="M216.34,413.21a9.64,9.64,0,0,1-2.06-.41.16.16,0,0,1-.13-.14.21.21,0,0,1,.08-.19c.26-.15,2.57-1.52,3.5-1.09a.71.71,0,0,1,.39.54,1,1,0,0,1-.29,1A2.05,2.05,0,0,1,216.34,413.21Zm1.23-1.47c-.49-.23-1.83.34-2.77.86,1.38.36,2.4.38,2.79,0a.66.66,0,0,0,.17-.64.32.32,0,0,0-.19-.27Z" style="fill:#1B1919"></path><path d="M214.32,412.81h-.08a.24.24,0,0,1-.09-.15c0-.07,0-2.35.79-3.07a1,1,0,0,1,.8-.2.69.69,0,0,1,.62.59c.12.86-1.14,2.42-1.94,2.83A.11.11,0,0,1,214.32,412.81Zm1.26-3a.52.52,0,0,0-.39.15c-.51.42-.64,1.7-.67,2.43a3.82,3.82,0,0,0,1.48-2.28c0-.11-.07-.24-.33-.28Z" style="fill:#1B1919"></path><polygon points="216.12 402.7 215.09 409.14 206.28 407.48 206.99 400.19 216.12 402.7" style="opacity:0.2;isolation:isolate"></polygon><path d="M226.59,353.73c-4-5.27-14.33-7.94-22.64-9.28l-12,20.56c12.6.52,16.47,4.19,16.76,5.36,1.35,5.59-5.11,34.68-5.11,34.68L217,408.29S233.72,363.13,226.59,353.73Z" style="fill:#1B1919"></path><path d="M171.86,344.45s4.69-44.25,8-52.31,12.93-14.06,35.79-7.69c0,0,4.28,2.78,2.8,15s-2,43.77-2,43.77Z" style="fill:#1B1919"></path><path d="M218.41,299.4c-.53,4.43-.94,11.39-1.24,18.48-.14,3.1-.24,6.22-.34,9.15-.27,8.91-.39,16.15-.39,16.15l-44.58,1.27s4.68-44.26,8-52.31,12.93-14.06,35.78-7.69C215.6,284.45,219.89,287.23,218.41,299.4Z" style="fill:#fff;opacity:0.6000000000000001"></path><path d="M208.87,293.81l3.14-5.09,4.33,5.09s-1.23-13.52-17-13.83a7.82,7.82,0,0,0-8,5.33c2.75,4.45,10.06,9.29,10.06,9.29l2.91-4.4Z" style="fill:#1B1919"></path><path d="M207.87,292.14l-2.86-3s-7.61-3-10.21-5.27c1.72-1.25,2.61-3.34,3-5.81a30.78,30.78,0,0,0,.37-5.27s.69-.7,3.44-.69c6.22,0,7.3,1.78,7.3,1.78-1.15,3-2.31,7.45-.09,10.24a5.68,5.68,0,0,0,1.75,1.46S212.93,288.55,207.87,292.14Z" style="fill:#b97964"></path><path d="M208.84,284.13c-6.1-.75-9.32-3.49-11-6.06a30.78,30.78,0,0,0,.37-5.27s.69-.7,3.44-.69c6.22,0,7.3,1.78,7.3,1.78C207.78,276.9,206.62,281.34,208.84,284.13Z" style="opacity:0.2;isolation:isolate"></path><path d="M218.72,250.35s3.85,5.08.47,10.54-8.63-8.56-8.63-8.56Z" style="fill:#263238"></path><path d="M192.59,257.24c.58,8.51.43,13.51,5.25,17.86,7.26,6.57,19.07,2.69,21.36-5.8,2.1-7.64.78-20.25-8.58-23.64S192,248.74,192.59,257.24Z" style="fill:#b97964"></path><path d="M209.88,262.19c-.06.74.29,1.39.79,1.42s.93-.54,1-1.29-.3-1.38-.79-1.43S209.94,261.44,209.88,262.19Z" style="fill:#263238"></path><path d="M216.22,262.19c-.06.74.3,1.39.79,1.42s.93-.54,1-1.29-.3-1.38-.79-1.43S216.28,261.44,216.22,262.19Z" style="fill:#263238"></path><path d="M210.86,256.65a.47.47,0,0,0,.13-.24.45.45,0,0,0-.4-.48,4.35,4.35,0,0,0-3.76,1.45.44.44,0,0,0,.07.62h0a.46.46,0,0,0,.62-.08h0a3.47,3.47,0,0,1,3-1.09A.49.49,0,0,0,210.86,256.65Z" style="fill:#263238"></path><path d="M219.83,257.93a.58.58,0,0,0,.25-.12.44.44,0,0,0,0-.62,4.33,4.33,0,0,0-3.89-1.05.44.44,0,0,0-.31.55h0a.47.47,0,0,0,.55.3h0a3.44,3.44,0,0,1,3.08.9A.5.5,0,0,0,219.83,257.93Z" style="fill:#263238"></path><path d="M214.28,264.1l2.06,1.85s-.63.85-2.73.92Z" style="fill:#d58745"></path><path d="M214.4,268.73a26,26,0,0,0-1.75,3.32l-.64-.17c-2.9-.78-4-2.09-4.31-3.32a3.76,3.76,0,0,1,0-1.83,3.88,3.88,0,0,1,.35-1c1.29,1.33,3.94,2.26,5.37,2.7C214,268.64,214.4,268.73,214.4,268.73Z" style="fill:#263238"></path><path d="M213.42,268.45l-.54,1c-2.73-.74-4.55-1.62-5.18-2.68a3.88,3.88,0,0,1,.35-1C209.34,267.08,212,268,213.42,268.45Z" style="fill:#fff"></path><path d="M212,271.88c-2.9-.78-4-2.09-4.31-3.32a9.57,9.57,0,0,1,3,1.5A3.63,3.63,0,0,1,212,271.88Z" style="fill:#de5753"></path><path d="M198.62,264.74s5.59-2.9,4.75-11c0,0,4,1.5,6.48-1.69,0,0,4.7,4,7.73-.31l1.14-1.44s1.3-1.7-.71-4.47a5.17,5.17,0,0,0-5.32-1.88s-1.23-1.68-5.95-2.34a6.29,6.29,0,0,0-6.59,3.08,6.59,6.59,0,0,0-6.66,1.27c-3.08,2.77-2.07,7.15-2.07,7.15s-2.93.11-3.09,4.92,3.09,6,3.09,6-1.89,1.29,0,5.31,4.74,3.9,4.74,3.9Z" style="fill:#263238"></path><path d="M196.45,262.25s1.8-1.59,5.58-.09a15.65,15.65,0,0,1,5.36,3.42s9.13-2.79,12.56-.51c0,0,1,10.2-8.82,13.34,0,0-16.25-.87-16.33-11.54,0,0,1.22,7.51,8.16,8.85a16.61,16.61,0,0,0,3.35-9.51S203.53,261.27,196.45,262.25Z" style="fill:#1B1919"></path><path d="M196.45,262.25s1.8-1.59,5.58-.09a15.65,15.65,0,0,1,5.36,3.42s9.13-2.79,12.56-.51c0,0,1,10.2-8.82,13.34,0,0-16.25-.87-16.33-11.54,0,0,1.22,7.51,8.16,8.85a16.61,16.61,0,0,0,3.35-9.51S203.53,261.27,196.45,262.25Z" style="fill:#fff;opacity:0.8"></path><path d="M199.59,263.1s-1.57-4.92-4.14-3.67-2.88,9.16.74,9.51S201,265.79,199.59,263.1Z" style="fill:#b97964"></path><path d="M198.53,253.32s-.71,27.16,1.07,29.78,17,1.95,21.45.6l.84-31.53A147.53,147.53,0,0,0,198.53,253.32Z" style="fill:#1B1919;opacity:0.2"></path><path d="M200.8,281.43c-1.69-2.47-1-28.17-1-28.17.32,0-.51,0-1.25.06,0,0-.71,27.16,1.07,29.78s17,1.95,21.45.6l0-1.69C216.83,283.28,202.48,283.91,200.8,281.43Z" style="fill:#263238;opacity:0.2"></path><path d="M188,254.2s16.93-4,33.85-2.42v2.89a130.19,130.19,0,0,0-34.16,2.75Z" style="fill:#1B1919"></path><line x1="232.17" y1="304.78" x2="238.61" y2="321.45" style="fill:none;stroke:#263238;stroke-miterlimit:10;stroke-width:2px"></line><path d="M217.17,317.88c-.14,3.1-.24,6.22-.34,9.15-4.79.6-13.7,1.42-18.27.13-8.17-2.31-20.67-17.63-18.17-28.73s8.27-9.47,8.27-9.47,15.22,12.72,22,25.71Z" style="opacity:0.2;isolation:isolate"></path><path d="M198.08,302.64s8.94,9.22,10.79,10.47,19.49,4.18,19.49,4.18,6.06-1.56,8.18-1.8,5.58,6.67,5.58,6.67-9.06,2.1-11.93.86c0,0-18.69.1-22.8-1s-14.83-8.51-14.83-8.51Z" style="fill:#b97964"></path><path d="M182.68,289.09c7-6.46,21.2,17.61,21.2,17.61l-8.59,10.59S167.53,303.08,182.68,289.09Z" style="fill:#1B1919"></path><path d="M182.68,289.09c7-6.46,21.2,17.61,21.2,17.61l-8.59,10.59S167.53,303.08,182.68,289.09Z" style="fill:#fff;opacity:0.6000000000000001"></path><polygon points="193.49 317.76 203.88 305.13 205.81 307.93 196.82 319.86 193.49 317.76" style="fill:#1B1919"></polygon><path d="M222.89,324.7l-3.31,13a4.45,4.45,0,0,1-4.31,3.35h-52l-.86-4.81h48.68a1.14,1.14,0,0,0,1.11-.87l2.58-10.63Z" style="fill:#263238"></path><path d="M222.89,324.7l-3.31,13a4.45,4.45,0,0,1-4.31,3.35h-52l-.86-4.81h48.68a1.14,1.14,0,0,0,1.11-.87l2.58-10.63Z" style="fill:#fff;opacity:0.4;isolation:isolate"></path><rect x="198.26" y="322.63" width="70.45" height="4.15" rx="1.43" style="fill:#263238"></rect><path d="M268.71,324v1.37a1.39,1.39,0,0,1-1.4,1.39H199.65a1.39,1.39,0,0,1-1.39-1.39V324a1.39,1.39,0,0,1,1.39-1.39h67.66A1.39,1.39,0,0,1,268.71,324Z" style="fill:#fff;opacity:0.6000000000000001;isolation:isolate"></path><path d="M268.71,324v1.37a1.39,1.39,0,0,1-1.4,1.39H234.65a1.39,1.39,0,0,1-1.39-1.39V324a1.39,1.39,0,0,1,1.39-1.39h32.66A1.39,1.39,0,0,1,268.71,324Z" style="fill:#fff;opacity:0.30000000000000004;isolation:isolate"></path></g><polygon points="202.99 214.29 205.32 232.95 207.66 214.29 202.99 214.29" style="fill:#1B1919"></polygon><rect x="188.73" y="187.29" width="33.18" height="33.18" rx="3.69" transform="translate(-0.34 0.34) rotate(-0.1)" style="fill:#1B1919"></rect><path d="M212.45,200.91A7.13,7.13,0,1,0,201,206.67a2,2,0,0,1,.78,1.27l.09.59,7.11-.08.09-.59a2,2,0,0,1,.75-1.3A7.15,7.15,0,0,0,212.45,200.91Z" style="fill:#fff"></path><path d="M204,209.11s-.18-3.39-1.59-5.24h1l.47-1.49,1,2.73.6-2.85.91,3,.54-1.41,1.5,0a8.27,8.27,0,0,0-1.81,5.35" style="fill:none;stroke:#1B1919;stroke-linecap:round;stroke-linejoin:round;stroke-width:0.5px"></path><path d="M205.41,208.91a2.63,2.63,0,1,0,2.31,2.59A2.47,2.47,0,0,0,205.41,208.91Z" style="fill:#263238"></path><path d="M206.73,213.14l-2.54,0a2.4,2.4,0,0,1-2.41-2.2l-.21-2.39a.34.34,0,0,1,.34-.37l7-.08a.35.35,0,0,1,.35.37l-.16,2.39A2.4,2.4,0,0,1,206.73,213.14Z" style="fill:#1B1919"></path><path d="M206.73,213.14l-2.54,0a2.4,2.4,0,0,1-2.41-2.2l-.21-2.39a.34.34,0,0,1,.34-.37l7-.08a.35.35,0,0,1,.35.37l-.16,2.39A2.4,2.4,0,0,1,206.73,213.14Z" style="fill:#fff;opacity:0.6000000000000001"></path></g></svg>
